<svg width="13" height="13" viewBox="0 0 13 13" fill="none" xmlns="http://www.w3.org/2000/svg">
<path d="M10.4 0.695007H2.6C1.16406 0.695007 0 1.76952 0 3.09501V10.295C0 11.6205 1.16406 12.695 2.6 12.695H10.4C11.8359 12.695 13 11.6205 13 10.295V3.09501C13 1.76952 11.8359 0.695007 10.4 0.695007Z" fill="#7539FF"/>
<path d="M2.6001 5.19498C2.61025 4.94185 2.70674 4.73092 2.88955 4.56217C3.07236 4.39342 3.30088 4.30435 3.5751 4.29498H9.4251C9.69933 4.30435 9.92781 4.39342 10.1107 4.56217C10.2934 4.73092 10.39 4.94185 10.4001 5.19498V8.79498C10.39 9.04812 10.2934 9.25902 10.1107 9.4278C9.92781 9.59652 9.69933 9.68562 9.4251 9.69498H3.5751C3.30088 9.68562 3.07236 9.59652 2.88955 9.4278C2.70674 9.25902 2.61025 9.04812 2.6001 8.79498V5.19498ZM3.33135 5.19498V5.50436L5.9669 7.50126C6.1294 7.6137 6.30713 7.66998 6.5001 7.66998C6.69308 7.66998 6.87586 7.6137 7.04857 7.50126L9.66885 5.50436V5.18092C9.65871 5.04967 9.57746 4.97467 9.4251 4.95592H3.5751C3.42275 4.97467 3.3415 5.04967 3.33135 5.18092V5.19498ZM3.33135 6.37623V8.79498C3.3415 8.93562 3.42275 9.01062 3.5751 9.01998H9.4251C9.57746 9.01062 9.65871 8.93562 9.66885 8.79498V6.37623L7.50558 8.02152C7.20086 8.23716 6.86572 8.34498 6.5001 8.34498C6.13447 8.34498 5.79424 8.23716 5.4794 8.02152L3.33135 6.37623Z" fill="url(#paint0_linear_59_36)"/>
<defs>
<linearGradient id="paint0_linear_59_36" x1="6.50007" y1="9.69492" x2="6.50007" y2="3.69471" gradientUnits="userSpaceOnUse">
<stop stop-color="#21171F"/>
<stop offset="1" stop-color="#3E4049"/>
</linearGradient>
</defs>
</svg>
