<svg width="68" height="28" viewBox="0 0 68 28" fill="none" xmlns="http://www.w3.org/2000/svg">
<g clip-path="url(#clip0_59_12)">
<path fill-rule="evenodd" clip-rule="evenodd" d="M11.6951 11.9402L15.2964 12.3242C15.4867 12.3441 15.6248 12.5117 15.6045 12.6984C15.5958 12.779 15.5584 12.8502 15.5041 12.9035C15.3287 13.0772 15.1587 13.2419 14.9945 13.4006C13.8972 14.4623 13.0703 15.2628 12.9736 16.6573C12.9223 17.3993 13.3423 18.0851 13.7852 18.8075C14.4512 19.8948 15.1629 21.0566 14.6918 22.7362C14.4632 23.5515 14.0593 24.2898 13.536 24.9687C13.0218 25.6358 12.3881 26.2492 11.6906 26.8248C11.5757 26.9192 11.4169 26.9286 11.2946 26.859L9.39941 25.7859L9.88294 25.275L11.4298 26.1512C12.0132 25.6545 12.5436 25.1273 12.9816 24.559C13.4563 23.9427 13.8209 23.2801 14.0237 22.5585C14.4164 21.1583 13.7831 20.1247 13.1905 19.1574C12.69 18.341 12.2152 17.5656 12.2816 16.6129C12.3956 14.965 13.3 14.0868 14.5006 12.925L11.2021 12.5732L11.6951 11.9402Z" fill="#F48C0D"/>
<path fill-rule="evenodd" clip-rule="evenodd" d="M2.8361 10.2448L9.60974 10.9672C8.21306 12.3519 7.09836 13.1992 6.97769 14.9395C6.84041 16.9184 9.46376 18.258 8.70779 20.9517C8.27649 22.4894 7.17216 23.7524 5.81818 24.8699L0 21.5749C1.03135 20.9159 2.06436 19.7566 2.21033 18.5143C2.41436 16.7801 0.470679 15.1017 0.958778 13.423C1.28929 12.2839 1.91009 11.112 2.8361 10.2448Z" fill="#F48C0D"/>
<path fill-rule="evenodd" clip-rule="evenodd" d="M6.50816 8.55736L14.1937 9.37255C14.3841 9.39249 14.5221 9.5601 14.5018 9.7468C14.4919 9.83914 14.445 9.91889 14.3774 9.97338L13.7604 10.4847C12.1036 11.8536 11.0914 12.6395 10.4428 14.6209C10.0841 15.7168 10.442 16.7081 10.8425 17.8166C11.3186 19.1337 11.8498 20.6047 11.4459 22.6463C11.2332 23.7203 10.7389 24.6677 10.0443 25.5386C9.35998 26.3957 8.48663 27.1751 7.49968 27.9284C7.37611 28.0224 7.20856 28.022 7.08666 27.9382L1.29417 24.0318C1.13078 23.9342 1.07936 23.7247 1.17888 23.5645C1.20915 23.516 1.2498 23.4774 1.29624 23.4502C2.0427 23.001 3.01142 22.1025 3.61232 21.3707C4.12157 20.7504 4.51014 20.06 4.66233 19.3547C4.87548 18.3678 4.49148 17.3463 4.1112 16.3339C3.64383 15.0903 3.18062 13.8578 3.68282 12.5658C3.99882 11.7539 4.42429 10.9285 4.95552 10.1577C5.43988 9.45476 5.58046 9.20903 6.24274 8.64074C6.31904 8.57528 6.41564 8.54801 6.50816 8.55736ZM13.3166 9.96402L6.58692 9.25014C6.02168 9.7533 5.95825 9.91928 5.53236 10.538C5.03183 11.2645 4.63081 12.0423 4.33306 12.8079C3.92334 13.8618 4.34177 14.9756 4.76393 16.0992C5.17863 17.2028 5.59707 18.3161 5.34243 19.4954C5.16619 20.3122 4.72661 21.0986 4.1535 21.7966C3.62559 22.4401 2.77754 23.2781 2.12232 23.7308L7.26162 27.2455C8.13414 26.5661 8.90092 25.8693 9.49893 25.1204C10.128 24.3317 10.5747 23.479 10.765 22.5186C11.1337 20.6572 10.6352 19.2786 10.189 18.0436C9.7473 16.822 9.35296 15.7294 9.78342 14.4134C10.4921 12.2482 11.5766 11.4028 13.3154 9.96649L13.3166 9.96402Z" fill="#F48C0D"/>
<path fill-rule="evenodd" clip-rule="evenodd" d="M2.65286 11.4101C2.53882 11.3975 2.45671 11.2958 2.46957 11.1839C2.48242 11.0721 2.5861 10.9916 2.70014 11.0042L7.88797 11.5903C8.00201 11.6029 8.08411 11.7046 8.07129 11.8165C8.05842 11.9284 7.95475 12.0089 7.84071 11.9963L2.65286 11.4101ZM1.95244 13.728C1.8384 13.7154 1.75629 13.6137 1.76915 13.5018C1.782 13.3899 1.88568 13.3094 1.99972 13.322L4.80265 13.6389C4.91669 13.6515 4.9988 13.7532 4.98594 13.865C4.97309 13.9769 4.86941 14.0575 4.75537 14.0449L1.95244 13.728ZM2.0445 12.5438C1.93046 12.5312 1.84836 12.4295 1.86121 12.3176C1.87406 12.2058 1.97774 12.1252 2.09178 12.1378L6.01853 12.5817C6.13257 12.5943 6.21467 12.696 6.20185 12.8078C6.18898 12.9197 6.0853 13.0002 5.97126 12.9876L2.0445 12.5438Z" fill="#F48C0D"/>
<path fill-rule="evenodd" clip-rule="evenodd" d="M3.1077 18.888C2.94555 19.8639 2.09294 20.7983 1.46924 21.3792C1.86444 21.6294 2.15058 21.8104 2.54578 22.061C3.47222 21.3959 4.29 20.518 4.30161 19.3152L3.1077 18.888ZM4.35801 17.8052L5.6411 18.0452C5.80034 18.6294 5.98032 19.1504 6.0064 19.7459C6.06242 21.0338 5.17413 22.3331 4.2025 23.0303C3.80729 22.7797 3.41167 22.5296 3.01647 22.279C3.66713 21.6729 4.56701 20.6824 4.67234 19.6609C4.73869 19.0129 4.57697 18.4149 4.35801 17.8052ZM5.43953 16.5051C5.60833 17.8865 6.66868 18.6724 6.33526 20.4261C6.14369 21.4349 5.32134 22.4458 4.67069 23.0519C5.06589 23.3024 5.33461 23.4725 5.72983 23.7227C6.70184 23.0255 7.28246 22.041 7.6573 20.8865C8.23954 19.0935 6.88974 18.0293 6.60152 16.7199C6.16481 16.6393 5.8762 16.5856 5.43953 16.5051Z" fill="#F48C0D"/>
<path d="M9.75416 7.77777C11.8012 7.77777 13.4607 6.03666 13.4607 3.88889C13.4607 1.74111 11.8012 0 9.75416 0C7.70709 0 6.04761 1.74111 6.04761 3.88889C6.04761 6.03666 7.70709 7.77777 9.75416 7.77777Z" fill="#F48C0D"/>
<path d="M12.8475 3.5C12.8475 5.19788 11.4657 6.58 9.75409 6.58C8.04244 6.58 6.66064 5.19788 6.66064 3.5C6.66064 1.80211 8.04244 0.419998 9.75409 0.419998C11.4657 0.419998 12.8475 1.80211 12.8475 3.5Z" fill="#F48C0D" stroke="#F48C0D" stroke-width="1.5"/>
<path d="M18.1438 25.2V13.1018H21.7734V14.8758C22.1822 14.2188 22.7299 13.7178 23.4166 13.3728C24.1033 13.0278 24.8717 12.8554 25.7219 12.8554C27.1443 12.8554 28.2071 13.2742 28.9101 14.112C29.6131 14.9334 29.9647 16.2064 29.9647 17.9312V25.2H26.2614V18.1037C26.2614 17.2659 26.1061 16.6663 25.7955 16.305C25.4848 15.9271 25.027 15.7382 24.4221 15.7382C23.6373 15.7382 23.0079 15.9846 22.5337 16.4774C22.0759 16.9702 21.847 17.6273 21.847 18.4486V25.2H18.1438ZM36.1655 25.2L30.9173 13.1018H34.8167L37.8332 20.7894L40.9478 13.1018H44.602L39.2801 25.2H36.1655ZM49.5416 25.471C48.6424 25.471 47.8494 25.2986 47.1627 24.9536C46.476 24.6086 45.9283 24.1405 45.5195 23.5491C45.1271 22.9578 44.9309 22.2925 44.9309 21.5533C44.9309 20.6826 45.1599 19.9846 45.6176 19.4589C46.0755 18.9332 46.8193 18.5636 47.8494 18.3501C48.8794 18.1201 50.2446 18.0051 51.945 18.0051H52.8279V17.5862C52.8279 16.8634 52.6644 16.3542 52.3374 16.0586C52.0104 15.7465 51.4545 15.5904 50.6697 15.5904C50.0157 15.5904 49.3208 15.6972 48.5851 15.9107C47.8658 16.1078 47.1464 16.4118 46.4269 16.8224L45.4214 14.3338C45.8466 14.0545 46.3616 13.7999 46.9665 13.5699C47.5878 13.3399 48.2336 13.1674 48.9039 13.0525C49.5743 12.921 50.2119 12.8554 50.8168 12.8554C52.6807 12.8554 54.0705 13.2825 54.986 14.1366C55.9016 14.9744 56.3592 16.2803 56.3592 18.0544V25.2H52.9014V23.3766C52.6562 24.0173 52.2393 24.5265 51.6507 24.9043C51.0785 25.2822 50.3754 25.471 49.5416 25.471ZM50.3754 22.9824C51.0621 22.9824 51.6425 22.7442 52.1167 22.2678C52.5908 21.7914 52.8279 21.1754 52.8279 20.4198V19.927H51.9695C50.7106 19.927 49.8195 20.042 49.2963 20.272C48.7732 20.4855 48.5115 20.8634 48.5115 21.4054C48.5115 21.8654 48.6669 22.2432 48.9775 22.5389C49.3045 22.8346 49.7705 22.9824 50.3754 22.9824ZM59.1222 25.2V13.1018H62.7518V15.1962C63.3237 13.7834 64.5499 13.0032 66.4305 12.8554L67.5096 12.7814L67.7303 15.9107L65.6457 16.1325C63.8142 16.3132 62.8989 17.2495 62.8989 18.9414V25.2H59.1222Z" fill="white"/>
</g>
<defs>
<clipPath id="clip0_59_12">
<rect width="68" height="28" fill="white"/>
</clipPath>
</defs>
</svg>
